<?xml version="1.0" encoding="UTF-8" standalone="no"?>
<svg
   width="1280"
   height="640"
   overflow="hidden"
   version="1.1"
   id="svg56"
   sodipodi:docname="NetMessageBanner.svg"
   inkscape:version="1.1 (c68e22c387, 2021-05-23)"
   inkscape:export-filename="C:\Data\git\_Others\NetMessage\Icon\NetMessageBanner.png"
   inkscape:export-xdpi="96"
   inkscape:export-ydpi="96"
   xmlns:inkscape="http://www.inkscape.org/namespaces/inkscape"
   xmlns:sodipodi="http://sodipodi.sourceforge.net/DTD/sodipodi-0.dtd"
   xmlns="http://www.w3.org/2000/svg"
   xmlns:svg="http://www.w3.org/2000/svg">
  <sodipodi:namedview
     id="namedview58"
     pagecolor="#ffffff"
     bordercolor="#666666"
     borderopacity="1.0"
     inkscape:pageshadow="2"
     inkscape:pageopacity="1"
     inkscape:pagecheckerboard="0"
     showgrid="false"
     inkscape:zoom="0.8265625"
     inkscape:cx="640"
     inkscape:cy="359.92439"
     inkscape:window-width="2381"
     inkscape:window-height="1417"
     inkscape:window-x="-8"
     inkscape:window-y="-8"
     inkscape:window-maximized="1"
     inkscape:current-layer="svg56" />
  <defs
     id="defs24">
    <filter
       id="fx0"
       x="-128"
       y="-72"
       width="1536"
       height="864.00006"
       filterUnits="userSpaceOnUse"
       primitiveUnits="userSpaceOnUse">
      <feComponentTransfer
         color-interpolation-filters="sRGB"
         id="feComponentTransfer10">
        <feFuncR
           type="discrete"
           tableValues="0 0"
           id="feFuncR2" />
        <feFuncG
           type="discrete"
           tableValues="0 0"
           id="feFuncG4" />
        <feFuncB
           type="discrete"
           tableValues="0 0"
           id="feFuncB6" />
        <feFuncA
           type="linear"
           slope="0.4"
           intercept="0"
           id="feFuncA8" />
      </feComponentTransfer>
      <feGaussianBlur
         stdDeviation="1.77778 1.77778"
         id="feGaussianBlur12" />
    </filter>
    <clipPath
       id="clip1">
      <rect
         x="0"
         y="0"
         width="1280"
         height="720"
         id="rect15" />
    </clipPath>
    <clipPath
       id="clip2">
      <rect
         x="1"
         y="-2"
         width="109"
         height="102"
         id="rect18" />
    </clipPath>
    <clipPath
       id="clip3">
      <rect
         x="0"
         y="0"
         width="110"
         height="98"
         id="rect21" />
    </clipPath>
  </defs>
  <g
     id="g167"
     transform="matrix(1.8066305,0,0,1.8066305,-281.64879,-120.54967)">
    <g
       clip-path="url(#clip2)"
       filter="url(#fx0)"
       transform="translate(263,169)"
       id="g38">
      <g
         clip-path="url(#clip3)"
         id="g36">
        <path
           d="M 15.0717,49.1784 16.2876,36.9016 C -0.047742,30.9961 -4.91236,18.6417 5.4222,9.3072 15.7568,-0.027298 37.377,-2.80708 53.7124,3.09838 70.0478,9.00385 74.9124,21.3583 64.5778,30.6928 56.9499,37.5826 42.7669,41.1369 28.7302,39.6765 Z"
           stroke="#7f7f7f"
           stroke-width="3"
           stroke-miterlimit="8"
           fill="#afabab"
           fill-rule="evenodd"
           transform="matrix(-1,0,0,1,101.328,38.3285)"
           id="path28" />
        <path
           d="M 86.2568,10.3795 85.0409,22.3494 C 101.376,28.1073 106.241,40.1529 95.9062,49.254 85.5717,58.3552 63.9514,61.0654 47.6161,55.3076 31.2807,49.5497 26.4161,37.5041 36.7507,28.403 44.3786,21.6855 58.5616,18.2199 72.5982,19.6439 Z"
           stroke="#5c2992"
           stroke-width="3"
           stroke-miterlimit="8"
           fill="#6d409d"
           fill-rule="evenodd"
           id="path30" />
        <path
           d="m 11.3285,34.9953 c 0,-3.682 2.9848,-6.6668 6.6668,-6.6668 h 4.4999 v 0 h 16.75 32.4165 c 3.682,0 6.6668,2.9848 6.6668,6.6668 v 16.6665 0 10 -10e-5 c 0,3.6819 -2.9848,6.6668 -6.6668,6.6668 H 39.2452 L 22.626,87.1929 22.4952,68.3285 h -4.4999 c -3.682,0 -6.6668,-2.9849 -6.6668,-6.6668 v 10e-5 -10 0 z"
           stroke="#301a80"
           stroke-width="3"
           stroke-miterlimit="8"
           fill="#512bd4"
           fill-rule="evenodd"
           id="path32" />
        <path
           d="M 15.7383,0 H 13.4414 L 4.10156,-14.3906 H 4.00781 c 0.02344,0.3828 0.05078,0.8183 0.08203,1.3066 0.03125,0.4883 0.05664,1.0078 0.07618,1.5586 0.01953,0.5508 0.02929,1.1113 0.02929,1.68165 V 0 H 2.34375 v -17.1328 h 2.28516 l 9.30469,14.34374 h 0.082 C 14,-3.0625 13.9805,-3.45117 13.957,-3.95508 13.9336,-4.45898 13.9121,-5.00195 13.8926,-5.58398 13.873,-6.16602 13.8633,-6.70703 13.8633,-7.20703 v -9.92577 h 1.875 z m 14.1445,0 h -9.539 v -17.1328 h 9.539 v 1.7578 h -7.5469 v 5.54297 h 7.1133 v 1.73437 h -7.1133 v 6.33985 h 7.5469 z m 9.056,0 h -2.0039 v -15.375 h -5.3906 v -1.7578 H 44.306 v 1.7578 h -5.3672 z"
           fill="#ffffff"
           transform="translate(21.9375,57)"
           id="path34" />
      </g>
    </g>
    <path
       d="m 346.4283,253.6784 -1.2159,-12.2768 c 16.33534,-5.9055 21.19996,-18.2599 10.8654,-27.5944 -10.3346,-9.3345 -31.9548,-12.11428 -48.2902,-6.20882 -16.3354,5.90547 -21.2,18.25992 -10.8654,27.59442 7.6279,6.8898 21.8109,10.4441 35.8476,8.9837 z"
       stroke="#7f7f7f"
       stroke-width="3"
       stroke-miterlimit="8"
       fill="#afabab"
       fill-rule="evenodd"
       id="path40" />
    <path
       d="m 346.428,176.551 -1.216,11.97 c 16.336,5.758 21.2,17.803 10.866,26.905 -10.335,9.101 -31.955,11.811 -48.29,6.053 -16.336,-5.758 -21.2,-17.803 -10.866,-26.904 7.628,-6.718 21.811,-10.183 35.848,-8.76 z"
       stroke="#5c2992"
       stroke-width="3"
       stroke-miterlimit="8"
       fill="#6d409d"
       fill-rule="evenodd"
       id="path42" />
    <path
       d="m 271.5,201.167 c 0,-3.682 2.985,-6.667 6.667,-6.667 h 4.5 v 0 h 16.75 32.416 c 3.682,0 6.667,2.985 6.667,6.667 v 16.666 0 10 0 c 0,3.682 -2.985,6.667 -6.667,6.667 h -32.416 l -16.619,18.864 -0.131,-18.864 h -4.5 c -3.682,0 -6.667,-2.985 -6.667,-6.667 v 0 -10 0 z"
       stroke="#301a80"
       stroke-width="3"
       stroke-miterlimit="8"
       fill="#512bd4"
       fill-rule="evenodd"
       id="path44" />
    <text
       fill="#ffffff"
       font-family="'Open Sans', 'Open Sans_MSFontService', sans-serif"
       font-weight="400"
       font-size="24px"
       id="text52"
       x="282.10901"
       y="223">NET<tspan
   fill="#000000"
   font-weight="700"
   font-size="59px"
   x="382.36398"
   y="234"
   id="tspan46">NetMessage</tspan><tspan
   fill="#24292f"
   font-size="32px"
   x="227.31979"
   y="313"
   id="tspan48">Typesafe</tspan><tspan
   fill="#24292f"
   font-size="32px"
   x="368.81979"
   y="313"
   id="tspan50">and lightweight RPC for .NET</tspan></text>
  </g>
</svg>
