<?xml version="1.0" encoding="UTF-8" standalone="no"?>
<!-- Created with Inkscape (http://www.inkscape.org/) -->

<svg
   width="26mm"
   height="26mm"
   viewBox="0 0 26 26"
   version="1.1"
   id="svg5"
   inkscape:version="1.1 (c68e22c387, 2021-05-23)"
   sodipodi:docname="NetMessageIcon.svg"
   inkscape:export-filename="C:\Users\wd974864\Desktop\NetMessageIcon.png"
   inkscape:export-xdpi="125.38"
   inkscape:export-ydpi="125.38"
   xmlns:inkscape="http://www.inkscape.org/namespaces/inkscape"
   xmlns:sodipodi="http://sodipodi.sourceforge.net/DTD/sodipodi-0.dtd"
   xmlns="http://www.w3.org/2000/svg"
   xmlns:svg="http://www.w3.org/2000/svg">
  <sodipodi:namedview
     id="namedview7"
     pagecolor="#ffffff"
     bordercolor="#666666"
     borderopacity="1.0"
     inkscape:pageshadow="2"
     inkscape:pageopacity="0.0"
     inkscape:pagecheckerboard="0"
     inkscape:document-units="mm"
     showgrid="false"
     fit-margin-top="0"
     fit-margin-left="0"
     fit-margin-right="0"
     fit-margin-bottom="0"
     inkscape:zoom="6.2217172"
     inkscape:cx="87.435669"
     inkscape:cy="62.603296"
     inkscape:window-width="2381"
     inkscape:window-height="1417"
     inkscape:window-x="-8"
     inkscape:window-y="-8"
     inkscape:window-maximized="1"
     inkscape:current-layer="layer1" />
  <defs
     id="defs2">
    <filter
       id="fx0"
       x="-21"
       y="-29.700001"
       width="252.00002"
       height="356.40002"
       filterUnits="userSpaceOnUse"
       primitiveUnits="userSpaceOnUse">
      <feComponentTransfer
         color-interpolation-filters="sRGB"
         id="feComponentTransfer17">
        <feFuncR
           type="discrete"
           tableValues="0 0"
           id="feFuncR9" />
        <feFuncG
           type="discrete"
           tableValues="0 0"
           id="feFuncG11" />
        <feFuncB
           type="discrete"
           tableValues="0 0"
           id="feFuncB13" />
        <feFuncA
           type="linear"
           slope="0.4"
           intercept="0"
           id="feFuncA15" />
      </feComponentTransfer>
      <feGaussianBlur
         stdDeviation="1.77778 1.77778"
         id="feGaussianBlur19" />
    </filter>
    <clipPath
       id="clip1">
      <rect
         x="0"
         y="0"
         width="1280"
         height="720"
         id="rect22" />
    </clipPath>
    <clipPath
       id="clip2">
      <rect
         x="1"
         y="-2"
         width="109"
         height="102"
         id="rect25" />
    </clipPath>
    <clipPath
       id="clip3">
      <rect
         x="0"
         y="0"
         width="109"
         height="98"
         id="rect28" />
    </clipPath>
  </defs>
  <g
     inkscape:label="Layer 1"
     inkscape:groupmode="layer"
     id="layer1"
     transform="translate(-43.743662,-38.409644)">
    <g
       id="g408"
       transform="translate(0,1.1056701)">
      <g
         clip-path="url(#clip2)"
         filter="url(#fx0)"
         transform="matrix(0.26458333,0,0,0.26458333,42.203306,37.450409)"
         id="g45">
        <g
           clip-path="url(#clip3)"
           id="g43">
          <path
             d="M 15.0717,49.1784 16.2876,36.9016 C -0.047742,30.9961 -4.91236,18.6417 5.4222,9.3072 15.7568,-0.027298 37.377,-2.80708 53.7124,3.09838 70.0478,9.00385 74.9124,21.3583 64.5778,30.6928 56.9499,37.5826 42.7669,41.1369 28.7302,39.6765 Z"
             stroke="#7f7f7f"
             stroke-width="3"
             stroke-miterlimit="8"
             fill="#afabab"
             fill-rule="evenodd"
             transform="matrix(-1,0,0,1,100.328,38.3285)"
             id="path35" />
          <path
             d="M 85.2568,10.3795 84.0409,22.3494 C 100.376,28.1073 105.241,40.1529 94.9062,49.254 84.5717,58.3552 62.9514,61.0654 46.6161,55.3076 30.2807,49.5497 25.4161,37.5041 35.7507,28.403 43.3786,21.6855 57.5616,18.2199 71.5982,19.6439 Z"
             stroke="#5c2992"
             stroke-width="3"
             stroke-miterlimit="8"
             fill="#6d409d"
             fill-rule="evenodd"
             id="path37" />
          <path
             d="m 10.3285,34.9953 c 0,-3.682 2.9848,-6.6668 6.6668,-6.6668 h 4.4999 v 0 h 16.75 32.4165 c 3.682,0 6.6668,2.9848 6.6668,6.6668 v 16.6665 0 10 -10e-5 c 0,3.6819 -2.9848,6.6668 -6.6668,6.6668 H 38.2452 L 21.626,87.1929 21.4952,68.3285 h -4.4999 c -3.682,0 -6.6668,-2.9849 -6.6668,-6.6668 v 10e-5 -10 0 z"
             stroke="#301a80"
             stroke-width="3"
             stroke-miterlimit="8"
             fill="#512bd4"
             fill-rule="evenodd"
             id="path39" />
          <path
             d="M 15.7383,0 H 13.4414 L 4.10156,-14.3906 H 4.00781 c 0.02344,0.3828 0.05078,0.8183 0.08203,1.3066 0.03125,0.4883 0.05664,1.0078 0.07618,1.5586 0.01953,0.5508 0.02929,1.1113 0.02929,1.68165 V 0 H 2.34375 v -17.1328 h 2.28516 l 9.30469,14.34374 h 0.082 C 14,-3.0625 13.9805,-3.45117 13.957,-3.95508 13.9336,-4.45898 13.9121,-5.00195 13.8926,-5.58398 13.873,-6.16602 13.8633,-6.70703 13.8633,-7.20703 v -9.92577 h 1.875 z m 14.1445,0 h -9.539 v -17.1328 h 9.539 v 1.7578 h -7.5469 v 5.54297 h 7.1133 v 1.73437 h -7.1133 v 6.33985 h 7.5469 z m 9.056,0 h -2.0039 v -15.375 h -5.3906 v -1.7578 H 44.306 v 1.7578 h -5.3672 z"
             fill="#ffffff"
             transform="translate(21.2433,57)"
             id="path41" />
        </g>
      </g>
      <path
         d="m 64.012459,59.854902 -0.321706,-3.248237 c 4.322059,-1.562497 5.609156,-4.831265 2.874803,-7.301018 -2.734363,-2.469753 -8.454707,-3.205237 -12.776782,-1.64275 -4.322074,1.562489 -5.609166,4.83127 -2.874803,7.301023 2.018215,1.822926 5.7708,2.763335 9.484677,2.376937 z"
         stroke="#7f7f7f"
         stroke-width="0.79375"
         stroke-miterlimit="8"
         fill="#afabab"
         fill-rule="evenodd"
         id="path47" />
      <path
         d="m 64.012381,39.448278 -0.321734,3.167062 c 4.322233,1.523471 5.609167,4.710377 2.874963,7.118615 -2.734469,2.407973 -8.454761,3.124994 -12.776729,1.601523 -4.322234,-1.523471 -5.609167,-4.710377 -2.874963,-7.11835 2.018242,-1.777471 5.770827,-2.694252 9.484783,-2.31775 z"
         stroke="#5c2992"
         stroke-width="0.79375"
         stroke-miterlimit="8"
         fill="#6d409d"
         fill-rule="evenodd"
         id="path49" />
      <path
         d="m 44.187681,45.961261 c 0,-0.974196 0.789781,-1.763977 1.763977,-1.763977 h 1.190625 v 0 h 4.431771 8.576733 c 0.974196,0 1.763977,0.789781 1.763977,1.763977 v 4.409546 0 2.645833 0 c 0,0.974196 -0.789781,1.763977 -1.763977,1.763977 h -8.576733 l -4.397111,4.9911 -0.03466,-4.9911 h -1.190625 c -0.974196,0 -1.763977,-0.789781 -1.763977,-1.763977 v 0 -2.645833 0 z"
         stroke="#301a80"
         stroke-width="0.79375"
         stroke-miterlimit="8"
         fill="#512bd4"
         fill-rule="evenodd"
         id="path51" />
      <text
         fill="#ffffff"
         font-family="'Open Sans', 'Open Sans_MSFontService', sans-serif"
         font-weight="400"
         font-size="6.35px"
         id="text53"
         x="47.075607"
         y="51.737911"
         style="stroke-width:0.264583">NET</text>
    </g>
  </g>
</svg>
